<svg width="24" height="24" viewBox="0 0 24 24" fill="none" xmlns="http://www.w3.org/2000/svg">
<g id="iconoir:headset-help">
<path id="Vector" d="M4 11.5L3.515 11.621C3.08232 11.7292 2.69821 11.9788 2.4237 12.3303C2.1492 12.6818 2.00007 13.115 2 13.561V15.438C2.00007 15.884 2.1492 16.3172 2.4237 16.6687C2.69821 17.0202 3.08232 17.2698 3.515 17.378L5.255 17.813C5.34342 17.835 5.43569 17.8366 5.52481 17.8177C5.61393 17.7987 5.69757 17.7597 5.76937 17.7036C5.84118 17.6475 5.89926 17.5758 5.93922 17.4939C5.97918 17.412 5.99997 17.3221 6 17.231V11.768C6.00001 11.6768 5.97921 11.5868 5.93919 11.5048C5.89918 11.4228 5.84099 11.351 5.76907 11.2949C5.69714 11.2388 5.61337 11.1998 5.52412 11.1809C5.43486 11.1621 5.34248 11.1638 5.254 11.186L4 11.5ZM4 11.5V11C4 8.87827 4.84285 6.84344 6.34315 5.34315C7.84344 3.84285 9.87827 3 12 3C14.1217 3 16.1566 3.84285 17.6569 5.34315C19.1571 6.84344 20 8.87827 20 11V11.5M20 11.5L20.485 11.621C20.9177 11.7292 21.3018 11.9788 21.5763 12.3303C21.8508 12.6818 21.9999 13.115 22 13.561V15.438C21.9999 15.884 21.8508 16.3172 21.5763 16.6687C21.3018 17.0202 20.9177 17.2698 20.485 17.378L20 17.5M20 11.5L18.745 11.186C18.6566 11.164 18.5643 11.1624 18.4752 11.1813C18.3861 11.2003 18.3024 11.2393 18.2306 11.2954C18.1588 11.3515 18.1007 11.4232 18.0608 11.5051C18.0208 11.587 18 11.6769 18 11.768V17.231C18 17.3221 18.0208 17.412 18.0608 17.4939C18.1007 17.5758 18.1588 17.6475 18.2306 17.7036C18.3024 17.7597 18.3861 17.7987 18.4752 17.8177C18.5643 17.8366 18.6566 17.835 18.745 17.813L20 17.5M20 17.5V18.5C20 19.0304 19.7893 19.5391 19.4142 19.9142C19.0391 20.2893 18.5304 20.5 18 20.5H15M15 20.5C15 20.1022 14.842 19.7206 14.5607 19.4393C14.2794 19.158 13.8978 19 13.5 19H10.5C10.1022 19 9.72064 19.158 9.43934 19.4393C9.15804 19.7206 9 20.1022 9 20.5C9 20.8978 9.15804 21.2794 9.43934 21.5607C9.72064 21.842 10.1022 22 10.5 22H13.5C13.8978 22 14.2794 21.842 14.5607 21.5607C14.842 21.2794 15 20.8978 15 20.5Z" stroke="#191970" stroke-width="1.5"/>
</g>
</svg>
