<svg width="24" height="24" viewBox="0 0 24 24" fill="none" xmlns="http://www.w3.org/2000/svg">
<g id="tabler:message">
<path id="Vector" d="M8.66667 9.75016H17.3333M8.66667 14.0835H15.1667M19.5 4.3335C20.362 4.3335 21.1886 4.67591 21.7981 5.2854C22.4076 5.89489 22.75 6.72154 22.75 7.5835V16.2502C22.75 17.1121 22.4076 17.9388 21.7981 18.5483C21.1886 19.1578 20.362 19.5002 19.5 19.5002H14.0833L8.66667 22.7502V19.5002H6.5C5.63805 19.5002 4.8114 19.1578 4.2019 18.5483C3.59241 17.9388 3.25 17.1121 3.25 16.2502V7.5835C3.25 6.72154 3.59241 5.89489 4.2019 5.2854C4.8114 4.67591 5.63805 4.3335 6.5 4.3335H19.5Z" stroke="#191970" stroke-width="2" stroke-linecap="round" stroke-linejoin="round"/>
</g>
</svg>
