<svg width="24" height="24" viewBox="0 0 24 24" fill="none" xmlns="http://www.w3.org/2000/svg">
<g id="tdesign:shop-4">
<path id="Vector" d="M7 4C6.46957 4 5.96086 4.21071 5.58579 4.58579C5.21071 4.96086 5 5.46957 5 6V7H8V4H7ZM10 4V7H14V4H10ZM16 4V7H19V6C19 5.46957 18.7893 4.96086 18.4142 4.58579C18.0391 4.21071 17.5304 4 17 4H16ZM21 7H22V9H21V20H22V22H2V20H3V9H2V7H3V6C3 4.93913 3.42143 3.92172 4.17157 3.17157C4.92172 2.42143 5.93913 2 7 2H17C18.0609 2 19.0783 2.42143 19.8284 3.17157C20.5786 3.92172 21 4.93913 21 6V7ZM19 9H5V20H8V15C8 13.9391 8.42143 12.9217 9.17157 12.1716C9.92172 11.4214 10.9391 11 12 11C13.0609 11 14.0783 11.4214 14.8284 12.1716C15.5786 12.9217 16 13.9391 16 15V20H19V9ZM14 20V15C14 14.4696 13.7893 13.9609 13.4142 13.5858C13.0391 13.2107 12.5304 13 12 13C11.4696 13 10.9609 13.2107 10.5858 13.5858C10.2107 13.9609 10 14.4696 10 15V20H14Z" fill="#191970"/>
</g>
</svg>
